<svg width="30" height="30" viewBox="0 0 30 30" fill="none" xmlns="http://www.w3.org/2000/svg">
<path fill-rule="evenodd" clip-rule="evenodd" d="M14.9998 0.916504C9.43097 0.916504 4.9165 5.43097 4.9165 10.9998V15.5832H4.8665H4.83607C4.30192 15.5832 3.85607 15.5832 3.49183 15.6129C3.11195 15.6439 2.75529 15.7111 2.41803 15.8829C1.90058 16.1466 1.47989 16.5673 1.21624 17.0847C1.04439 17.422 0.977282 17.7786 0.946244 18.1585C0.916485 18.5227 0.916494 18.9686 0.916504 19.5027L0.916505 19.5332V25.1332L0.916504 25.1636C0.916494 25.6978 0.916485 26.1436 0.946244 26.5078C0.977282 26.8877 1.04439 27.2444 1.21624 27.5816C1.47989 28.0991 1.90058 28.5198 2.41803 28.7834C2.75529 28.9553 3.11195 29.0224 3.49183 29.0534C3.85602 29.0832 4.3018 29.0832 4.83587 29.0832H4.83605H4.8665H6.4665H6.49696H6.49714C7.03121 29.0832 7.47699 29.0832 7.84117 29.0534C8.22106 29.0224 8.57772 28.9553 8.91498 28.7834C9.43242 28.5198 9.85312 28.0991 10.1168 27.5816C10.2886 27.2444 10.3557 26.8877 10.3868 26.5078C10.4165 26.1436 10.4165 25.6978 10.4165 25.1637V25.1636V25.1332V19.5332V19.5027V19.5027C10.4165 18.9685 10.4165 18.5227 10.3868 18.1585C10.3557 17.7786 10.2886 17.422 10.1168 17.0847C9.85312 16.5673 9.43242 16.1466 8.91498 15.8829C8.57772 15.7111 8.22106 15.6439 7.84117 15.6129C7.47694 15.5832 7.03109 15.5832 6.49694 15.5832H6.4665H6.4165V10.9998C6.4165 6.2594 10.2594 2.4165 14.9998 2.4165C19.7403 2.4165 23.5832 6.25939 23.5832 10.9998V15.5832H23.5332H23.5027C22.9686 15.5832 22.5227 15.5832 22.1585 15.6129C21.7786 15.6439 21.422 15.7111 21.0847 15.8829C20.5673 16.1466 20.1466 16.5673 19.8829 17.0847C19.7111 17.422 19.6439 17.7786 19.6129 18.1585C19.5832 18.5227 19.5832 18.9686 19.5832 19.5027V19.5332V25.1332V25.1636C19.5832 25.6978 19.5832 26.1436 19.6129 26.5078C19.6439 26.8877 19.7111 27.2444 19.8829 27.5816C20.1466 28.0991 20.5673 28.5198 21.0847 28.7834C21.422 28.9553 21.7786 29.0224 22.1585 29.0534C22.5227 29.0832 22.9685 29.0832 23.5025 29.0832H23.5027H23.5332H25.1332H25.1636H25.1638C25.6979 29.0832 26.1437 29.0832 26.5078 29.0534C26.8877 29.0224 27.2444 28.9553 27.5816 28.7834C28.0991 28.5198 28.5198 28.0991 28.7834 27.5816C28.9553 27.2444 29.0224 26.8877 29.0534 26.5078C29.0832 26.1437 29.0832 25.6979 29.0832 25.1638V25.1636V25.1332V19.5332V19.5027V19.5025C29.0832 18.9685 29.0832 18.5227 29.0534 18.1585C29.0224 17.7786 28.9553 17.422 28.7834 17.0847C28.5198 16.5673 28.0991 16.1466 27.5816 15.8829C27.2444 15.7111 26.8877 15.6439 26.5078 15.6129C26.1436 15.5832 25.6978 15.5832 25.1636 15.5832H25.1332H25.0832V10.9998C25.0832 5.43097 20.5687 0.916504 14.9998 0.916504Z" fill="#43A1F7"/>
</svg>
