<svg width="56" height="32" viewBox="0 0 56 32" fill="none" xmlns="http://www.w3.org/2000/svg">
<circle cx="40" cy="16" r="14" fill="white"/>
<path fill-rule="evenodd" clip-rule="evenodd" d="M43.2502 11.0002C43.2502 10.4939 42.8398 10.0835 42.3335 10.0835H42.28C41.8516 10.0835 41.4739 10.3645 41.3508 10.7749L41.0082 11.9168H42.3335C42.8398 11.9168 43.2502 11.5064 43.2502 11.0002ZM44.5703 11.9168C44.6862 11.6342 44.7502 11.3246 44.7502 11.0002C44.7502 9.66547 43.6682 8.5835 42.3335 8.5835H42.28C41.2753 8.5835 40.3802 9.19047 40.0002 10.1027C39.6201 9.19047 38.725 8.5835 37.7203 8.5835H37.6668C36.3321 8.5835 35.2502 9.66547 35.2502 11.0002C35.2502 11.3246 35.3141 11.6342 35.4301 11.9168H34.3335C33.367 11.9168 32.5835 12.7003 32.5835 13.6668C32.5835 14.6333 33.367 15.4168 34.3335 15.4168H45.6668C46.6333 15.4168 47.4168 14.6333 47.4168 13.6668C47.4168 12.7003 46.6333 11.9168 45.6668 11.9168H44.5703ZM37.6668 11.9168H38.9921L38.6496 10.7749C38.5264 10.3645 38.1487 10.0835 37.7203 10.0835H37.6668C37.1606 10.0835 36.7502 10.4939 36.7502 11.0002C36.7502 11.5064 37.1606 11.9168 37.6668 11.9168ZM36.2873 15.9167L36.3811 15.9168H43.6192L43.713 15.9167C44.0951 15.916 44.4604 15.9153 44.7775 16.0263C45.3377 16.2223 45.7781 16.6627 45.9741 17.2228C46.0851 17.54 46.0844 17.9052 46.0836 18.2873L46.0835 18.3811L46.0835 18.5301V18.5301C46.084 19.5824 46.0843 20.3017 45.8731 20.9054C45.4961 21.9826 44.6492 22.8295 43.572 23.2064C42.9684 23.4176 42.2491 23.4173 41.1967 23.4169L41.0478 23.4168H38.9525L38.8036 23.4169C37.7512 23.4173 37.0319 23.4176 36.4283 23.2064C35.3511 22.8295 34.5042 21.9826 34.1273 20.9054C33.916 20.3017 33.9163 19.5824 33.9168 18.5301L33.9168 18.3811L33.9167 18.2873C33.916 17.9052 33.9153 17.54 34.0263 17.2228C34.2223 16.6627 34.6627 16.2223 35.2228 16.0263C35.54 15.9153 35.9052 15.916 36.2873 15.9167Z" fill="#43A1F7"/>
</svg>
