<svg width="15" height="15" viewBox="0 0 15 15" fill="none" xmlns="http://www.w3.org/2000/svg">
<path fill-rule="evenodd" clip-rule="evenodd" d="M1.53038 0.46967C1.23749 0.176777 0.762616 0.176777 0.469723 0.46967C0.17683 0.762563 0.17683 1.23744 0.469723 1.53033L6.43927 7.49987L0.46967 13.4695C0.176777 13.7624 0.176777 14.2372 0.46967 14.5301C0.762563 14.823 1.23744 14.823 1.53033 14.5301L7.49993 8.56054L13.1976 14.2583C13.4905 14.5511 13.9654 14.5511 14.2583 14.2583C14.5512 13.9654 14.5512 13.4905 14.2583 13.1976L8.56059 7.49988L14.2583 1.80221C14.5511 1.50932 14.5511 1.03444 14.2583 0.741551C13.9654 0.448658 13.4905 0.448658 13.1976 0.741551L7.49993 6.43921L1.53038 0.46967Z" fill="white"/>
</svg>
