<svg width="48" height="44" viewBox="0 0 48 44" fill="none" xmlns="http://www.w3.org/2000/svg">
<path fill-rule="evenodd" clip-rule="evenodd" d="M30 0C28.8954 0 28 0.89543 28 2C28 3.10457 28.8954 4 30 4C33.3137 4 36 6.68629 36 10C36 13.3137 33.3137 16 30 16C28.8954 16 28 16.8954 28 18C28 19.1046 28.8954 20 30 20C35.5228 20 40 15.5228 40 10C40 4.47715 35.5228 0 30 0ZM36.4 28C38.1132 28 39.2777 28.0016 40.1779 28.0751C41.0548 28.1467 41.5032 28.2766 41.816 28.436C42.5686 28.8195 43.1805 29.4314 43.564 30.184C43.7234 30.4968 43.8533 30.9452 43.9249 31.8221C43.9984 32.7223 44 33.8868 44 35.6C44 36.7531 43.9984 37.4977 43.9521 38.0643C43.9078 38.6077 43.8324 38.8091 43.782 38.908C43.5903 39.2843 43.2843 39.5903 42.908 39.782C42.8091 39.8324 42.6077 39.9078 42.0643 39.9521C41.4977 39.9984 40.7531 40 39.6 40H34C32.8954 40 32 40.8954 32 42C32 43.1046 32.8954 44 34 44H39.6H39.677C40.7314 44 41.6409 44.0001 42.3901 43.9389C43.1807 43.8743 43.9672 43.7316 44.7239 43.346C45.8529 42.7708 46.7708 41.8529 47.346 40.7239C47.7316 39.9672 47.8743 39.1807 47.9389 38.3901C48.0001 37.6409 48 36.7314 48 35.6771V35.6V35.5174C48 33.9075 48 32.5787 47.9116 31.4963C47.8198 30.3722 47.6226 29.3387 47.1281 28.3681C46.3611 26.8628 45.1372 25.6389 43.6319 24.8719C42.6613 24.3774 41.6278 24.1802 40.5037 24.0884C39.4213 24 38.0925 24 36.4826 24H36.4H34C32.8954 24 32 24.8954 32 26C32 27.1046 32.8954 28 34 28H36.4ZM6 10C6 4.47715 10.4772 0 16 0C21.5228 0 26 4.47715 26 10C26 15.5228 21.5228 20 16 20C10.4772 20 6 15.5228 6 10ZM10 24C4.47715 24 0 28.4772 0 34C0 39.5228 4.47715 44 10 44H22C27.5228 44 32 39.5228 32 34C32 28.4772 27.5228 24 22 24H10Z" fill="#EA68FF"/>
</svg>
