<svg width="44" height="44" viewBox="0 0 44 44" fill="none" xmlns="http://www.w3.org/2000/svg">
<path fill-rule="evenodd" clip-rule="evenodd" d="M5.99992 4.55074e-05L5.81377 -0.000160725C5.07633 -0.00138763 4.35151 -0.00259331 3.70583 0.170416C1.98037 0.632752 0.63263 1.98049 0.170294 3.70595C-0.00271538 4.35163 -0.0015097 5.07645 -0.000282794 5.8139L-7.65621e-05 6.00005L-7.7039e-05 6.00048L-0.000282794 6.1862C-0.00048849 6.30984 -0.000693649 6.43314 -7.7039e-05 6.55576V9.999L-7.72774e-05 9.99998V29.2L-7.77542e-05 29.2856C-9.77814e-05 31.4532 -0.000113755 33.2015 0.115558 34.6172C0.234657 36.0749 0.486282 37.3553 1.08986 38.5399C2.04859 40.4215 3.5784 41.9513 5.46002 42.91C6.6446 43.5136 7.92498 43.7653 9.38267 43.8844C10.7984 44 12.5466 44 14.7141 44H14.7143H14.7999H29.1999H29.2856H29.2858C31.4533 44 33.2015 44 34.6172 43.8844C36.0749 43.7653 37.3552 43.5136 38.5398 42.91C40.4214 41.9513 41.9513 40.4215 42.91 38.5399C43.5136 37.3553 43.7652 36.0749 43.8843 34.6172C43.9006 34.4181 43.9145 34.2125 43.9265 34H39.9999H39.9359C39.0586 34 38.3017 34 37.6752 33.9573C37.0155 33.9123 36.3557 33.8133 35.7038 33.5433C34.2337 32.9343 33.0656 31.7663 32.4566 30.2961C32.1866 29.6442 32.0876 28.9844 32.0426 28.3247C31.9999 27.6982 31.9999 26.9413 31.9999 26.064V26V25.936C31.9999 25.0587 31.9999 24.3017 32.0426 23.6752C32.0876 23.0156 32.1866 22.3557 32.4566 21.7039C33.0656 20.2337 34.2337 19.0657 35.7038 18.4567C36.3557 18.1867 37.0155 18.0877 37.6752 18.0427C38.3017 17.9999 39.0586 18 39.9359 18H39.936L39.9999 18H43.9265C43.9145 17.7875 43.9006 17.5818 43.8843 17.3827C43.7652 15.925 43.5136 14.6447 42.91 13.4601C41.9513 11.5785 40.4214 10.0487 38.5398 9.08992C37.3552 8.48634 36.0749 8.23472 34.6172 8.11562C34.1272 8.07559 33.5974 8.04941 33.0241 8.0323L29.5199 3.36005L29.3993 3.19903C28.816 2.4195 28.3022 1.73282 27.6268 1.2203C27.0341 0.77059 26.363 0.435024 25.6476 0.230719C24.8323 -0.00211957 23.9747 -0.00117448 23.0011 -0.000101597L22.7999 4.55074e-05H5.99992ZM27.9999 7.99998L26.3199 5.76005C25.5464 4.72864 25.3795 4.53627 25.2089 4.4068C25.0113 4.25689 24.7876 4.14504 24.5492 4.07694C24.3432 4.01812 24.0892 4.00005 22.7999 4.00005H5.99992C5.51681 4.00005 5.22119 4.00053 4.99713 4.01075C4.79649 4.0199 4.74017 4.03428 4.7404 4.03429C4.74042 4.0343 4.74066 4.03424 4.7411 4.03412C4.39601 4.12659 4.12647 4.39613 4.034 4.74123C4.036 4.73375 4.02035 4.78395 4.01062 4.99726C4.00041 5.22131 3.99992 5.51693 3.99992 6.00005C3.99992 6.48316 4.00041 6.77878 4.01062 7.00283C4.02035 7.21614 4.036 7.26634 4.034 7.25886C4.12647 7.60396 4.39601 7.8735 4.7411 7.96598C4.74812 7.96766 4.80957 7.98079 4.99713 7.98934C5.18819 7.99806 5.43128 7.99969 5.79828 7.99998H21.9999H27.9999ZM43.9999 29.3024V29.2859V29.2857V29.2V22.8V22.7143V22.7141V22.6975C43.9999 22.46 43.9999 22.2275 43.9998 22H39.9999C39.0407 22 38.4214 22.0011 37.9474 22.0334C37.4914 22.0645 37.3178 22.1178 37.2346 22.1522C36.7445 22.3552 36.3552 22.7446 36.1522 23.2346C36.1177 23.3178 36.0645 23.4915 36.0333 23.9475C36.001 24.4215 35.9999 25.0407 35.9999 26C35.9999 26.9592 36.001 27.5785 36.0333 28.0525C36.0645 28.5085 36.1177 28.6821 36.1522 28.7654C36.3552 29.2554 36.7445 29.6448 37.2346 29.8477C37.3178 29.8822 37.4914 29.9355 37.9474 29.9666C38.4214 29.9989 39.0407 30 39.9999 30H43.9998C43.9999 29.7724 43.9999 29.54 43.9999 29.3024Z" fill="#FF68C3"/>
</svg>
